#tb 0: 1/25
#tb 1: 1/25
0,          0,          0,        1,   114063, 0x3728481b
1,          0,          0,        1,   114063, 0x1db4cfa4
0,          1,          1,        1,   114063, 0xe649b752
1,          1,          1,        1,   114063, 0x3b113bcf
0,          2,          2,        1,   114063, 0xa9688219
1,          2,          2,        1,   114063, 0xdb990210
0,          3,          3,        1,   114063, 0x823c1308
1,          3,          3,        1,   114063, 0x7dd8fb78
0,          4,          4,        1,   114063, 0x9f3a9161
1,          4,          4,        1,   114063, 0x4ce7b2c1
0,          5,          5,        1,   114063, 0x90f11a86
1,          5,          5,        1,   114063, 0xc96e1c3f
0,          6,          6,        1,   114063, 0x4b34614d
1,          6,          6,        1,   114063, 0xfd5ca8a6
0,          7,          7,        1,   114063, 0x21d5aafc
1,          7,          7,        1,   114063, 0x1d456e80
0,          8,          8,        1,   114063, 0x981c3889
1,          8,          8,        1,   114063, 0x7abdd56d
0,          9,          9,        1,   114063, 0x80cb4dcc
1,          9,          9,        1,   114063, 0xa2737919
0,         10,         10,        1,   114063, 0x953abd8e
1,         10,         10,        1,   114063, 0x678817a2
0,         11,         11,        1,   114063, 0x68763040
1,         11,         11,        1,   114063, 0x35955a74
0,         12,         12,        1,   114063, 0xacd47b62
1,         12,         12,        1,   114063, 0xffa5bfcf
0,         13,         13,        1,   114063, 0x9b217408
1,         13,         13,        1,   114063, 0x0850bbeb
0,         14,         14,        1,   114063, 0x4d8626a5
1,         14,         14,        1,   114063, 0xec4ff508
